<mxfile host="app.diagrams.net" modified="2024-03-13T11:56:57.687Z" agent="Mozilla/5.0 (Windows NT 10.0; Win64; x64) AppleWebKit/537.36 (KHTML, like Gecko) Chrome/122.0.0.0 Safari/537.36" etag="86I-96M4CkG2KCTmPm6Y" version="24.0.5" type="device">
  <diagram name="PÃ¡gina-1" id="snx0YpBr6MKP5n9HAAY5">
    <mxGraphModel dx="1354" dy="668" grid="1" gridSize="10" guides="1" tooltips="1" connect="1" arrows="1" fold="1" page="1" pageScale="1" pageWidth="827" pageHeight="1169" math="0" shadow="0">
      <root>
        <mxCell id="0" />
        <mxCell id="1" parent="0" />
        <mxCell id="O1kkgdQx-6lh8aL8HpDs-1" value="Obj" style="swimlane;fontStyle=1;align=center;verticalAlign=middle;childLayout=stackLayout;horizontal=1;startSize=26;horizontalStack=0;resizeParent=1;resizeParentMax=0;resizeLast=0;collapsible=1;marginBottom=0;whiteSpace=wrap;html=1;" vertex="1" parent="1">
          <mxGeometry x="364" y="150" width="160" height="110" as="geometry" />
        </mxCell>
        <mxCell id="O1kkgdQx-6lh8aL8HpDs-2" value="x: int&lt;div&gt;y: int&lt;/div&gt;&lt;div&gt;w: int&lt;/div&gt;&lt;div&gt;h: int&lt;/div&gt;&lt;div&gt;a: string&lt;/div&gt;" style="text;strokeColor=none;fillColor=none;align=left;verticalAlign=middle;spacingLeft=4;spacingRight=4;overflow=hidden;rotatable=0;points=[[0,0.5],[1,0.5]];portConstraint=eastwest;whiteSpace=wrap;html=1;" vertex="1" parent="O1kkgdQx-6lh8aL8HpDs-1">
          <mxGeometry y="26" width="160" height="84" as="geometry" />
        </mxCell>
        <mxCell id="O1kkgdQx-6lh8aL8HpDs-6" value="Head" style="swimlane;fontStyle=1;align=center;verticalAlign=middle;childLayout=stackLayout;horizontal=1;startSize=26;horizontalStack=0;resizeParent=1;resizeParentMax=0;resizeLast=0;collapsible=1;marginBottom=0;whiteSpace=wrap;html=1;" vertex="1" parent="1">
          <mxGeometry x="550" y="350" width="160" height="80" as="geometry" />
        </mxCell>
        <mxCell id="O1kkgdQx-6lh8aL8HpDs-7" value="drawHead(): void&lt;div&gt;refreshHead(): void&lt;/div&gt;&lt;div&gt;colision(): void&lt;/div&gt;&lt;div&gt;&lt;br&gt;&lt;/div&gt;" style="text;strokeColor=none;fillColor=none;align=left;verticalAlign=middle;spacingLeft=4;spacingRight=4;overflow=hidden;rotatable=0;points=[[0,0.5],[1,0.5]];portConstraint=eastwest;whiteSpace=wrap;html=1;" vertex="1" parent="O1kkgdQx-6lh8aL8HpDs-6">
          <mxGeometry y="26" width="160" height="54" as="geometry" />
        </mxCell>
        <mxCell id="O1kkgdQx-6lh8aL8HpDs-8" value="Body" style="swimlane;fontStyle=1;align=center;verticalAlign=middle;childLayout=stackLayout;horizontal=1;startSize=26;horizontalStack=0;resizeParent=1;resizeParentMax=0;resizeLast=0;collapsible=1;marginBottom=0;whiteSpace=wrap;html=1;" vertex="1" parent="1">
          <mxGeometry x="364" y="350" width="160" height="70" as="geometry" />
        </mxCell>
        <mxCell id="O1kkgdQx-6lh8aL8HpDs-9" value="drawBody(): void&lt;div&gt;refreshBody(): void&lt;/div&gt;" style="text;strokeColor=none;fillColor=none;align=left;verticalAlign=middle;spacingLeft=4;spacingRight=4;overflow=hidden;rotatable=0;points=[[0,0.5],[1,0.5]];portConstraint=eastwest;whiteSpace=wrap;html=1;" vertex="1" parent="O1kkgdQx-6lh8aL8HpDs-8">
          <mxGeometry y="26" width="160" height="44" as="geometry" />
        </mxCell>
        <mxCell id="O1kkgdQx-6lh8aL8HpDs-13" style="edgeStyle=orthogonalEdgeStyle;rounded=0;orthogonalLoop=1;jettySize=auto;html=1;exitX=0.5;exitY=0;exitDx=0;exitDy=0;entryX=0.229;entryY=0.988;entryDx=0;entryDy=0;entryPerimeter=0;endArrow=block;endFill=0;verticalAlign=middle;" edge="1" parent="1" target="O1kkgdQx-6lh8aL8HpDs-2">
          <mxGeometry relative="1" as="geometry">
            <mxPoint x="250" y="350" as="sourcePoint" />
          </mxGeometry>
        </mxCell>
        <mxCell id="O1kkgdQx-6lh8aL8HpDs-14" style="edgeStyle=orthogonalEdgeStyle;rounded=0;orthogonalLoop=1;jettySize=auto;html=1;exitX=0.5;exitY=0;exitDx=0;exitDy=0;entryX=0.496;entryY=1.012;entryDx=0;entryDy=0;entryPerimeter=0;endArrow=block;endFill=0;verticalAlign=middle;" edge="1" parent="1" source="O1kkgdQx-6lh8aL8HpDs-8" target="O1kkgdQx-6lh8aL8HpDs-2">
          <mxGeometry relative="1" as="geometry" />
        </mxCell>
        <mxCell id="O1kkgdQx-6lh8aL8HpDs-15" style="edgeStyle=orthogonalEdgeStyle;rounded=0;orthogonalLoop=1;jettySize=auto;html=1;entryX=0.814;entryY=0.996;entryDx=0;entryDy=0;entryPerimeter=0;endArrow=block;endFill=0;verticalAlign=middle;" edge="1" parent="1" source="O1kkgdQx-6lh8aL8HpDs-6" target="O1kkgdQx-6lh8aL8HpDs-2">
          <mxGeometry relative="1" as="geometry" />
        </mxCell>
        <mxCell id="O1kkgdQx-6lh8aL8HpDs-18" value="Text" style="swimlane;fontStyle=1;align=center;verticalAlign=middle;childLayout=stackLayout;horizontal=1;startSize=26;horizontalStack=0;resizeParent=1;resizeParentMax=0;resizeLast=0;collapsible=1;marginBottom=0;whiteSpace=wrap;html=1;" vertex="1" parent="1">
          <mxGeometry x="160" y="150" width="160" height="60" as="geometry" />
        </mxCell>
        <mxCell id="O1kkgdQx-6lh8aL8HpDs-19" value="drawText(): void" style="text;strokeColor=none;fillColor=none;align=left;verticalAlign=middle;spacingLeft=4;spacingRight=4;overflow=hidden;rotatable=0;points=[[0,0.5],[1,0.5]];portConstraint=eastwest;whiteSpace=wrap;html=1;" vertex="1" parent="O1kkgdQx-6lh8aL8HpDs-18">
          <mxGeometry y="26" width="160" height="34" as="geometry" />
        </mxCell>
        <mxCell id="O1kkgdQx-6lh8aL8HpDs-20" value="&lt;div&gt;Audio&lt;/div&gt;" style="swimlane;fontStyle=1;align=center;verticalAlign=middle;childLayout=stackLayout;horizontal=1;startSize=26;horizontalStack=0;resizeParent=1;resizeParentMax=0;resizeLast=0;collapsible=1;marginBottom=0;whiteSpace=wrap;html=1;" vertex="1" parent="1">
          <mxGeometry x="560" y="150" width="160" height="70" as="geometry" />
        </mxCell>
        <mxCell id="O1kkgdQx-6lh8aL8HpDs-21" value="playMainTheme(): void&lt;div&gt;&lt;div&gt;playEatApple(): void&lt;/div&gt;&lt;/div&gt;" style="text;strokeColor=none;fillColor=none;align=left;verticalAlign=middle;spacingLeft=4;spacingRight=4;overflow=hidden;rotatable=0;points=[[0,0.5],[1,0.5]];portConstraint=eastwest;whiteSpace=wrap;html=1;" vertex="1" parent="O1kkgdQx-6lh8aL8HpDs-20">
          <mxGeometry y="26" width="160" height="44" as="geometry" />
        </mxCell>
        <mxCell id="O1kkgdQx-6lh8aL8HpDs-26" value="Apple" style="swimlane;fontStyle=1;align=center;verticalAlign=middle;childLayout=stackLayout;horizontal=1;startSize=26;horizontalStack=0;resizeParent=1;resizeParentMax=0;resizeLast=0;collapsible=1;marginBottom=0;whiteSpace=wrap;html=1;" vertex="1" parent="1">
          <mxGeometry x="170" y="350" width="160" height="100" as="geometry" />
        </mxCell>
        <mxCell id="O1kkgdQx-6lh8aL8HpDs-27" value="&lt;div&gt;src: string&lt;/div&gt;" style="text;strokeColor=none;fillColor=none;align=left;verticalAlign=middle;spacingLeft=4;spacingRight=4;overflow=hidden;rotatable=0;points=[[0,0.5],[1,0.5]];portConstraint=eastwest;whiteSpace=wrap;html=1;" vertex="1" parent="O1kkgdQx-6lh8aL8HpDs-26">
          <mxGeometry y="26" width="160" height="26" as="geometry" />
        </mxCell>
        <mxCell id="O1kkgdQx-6lh8aL8HpDs-28" value="" style="line;strokeWidth=1;fillColor=none;align=left;verticalAlign=middle;spacingTop=-1;spacingLeft=3;spacingRight=3;rotatable=0;labelPosition=right;points=[];portConstraint=eastwest;strokeColor=inherit;" vertex="1" parent="O1kkgdQx-6lh8aL8HpDs-26">
          <mxGeometry y="52" width="160" height="8" as="geometry" />
        </mxCell>
        <mxCell id="O1kkgdQx-6lh8aL8HpDs-29" value="drawApple(): void&lt;div&gt;respawnApple(): void&lt;/div&gt;&lt;div&gt;&lt;br&gt;&lt;/div&gt;" style="text;strokeColor=none;fillColor=none;align=left;verticalAlign=middle;spacingLeft=4;spacingRight=4;overflow=hidden;rotatable=0;points=[[0,0.5],[1,0.5]];portConstraint=eastwest;whiteSpace=wrap;html=1;" vertex="1" parent="O1kkgdQx-6lh8aL8HpDs-26">
          <mxGeometry y="60" width="160" height="40" as="geometry" />
        </mxCell>
        <mxCell id="O1kkgdQx-6lh8aL8HpDs-31" value="&lt;b style=&quot;font-size: 36px;&quot;&gt;&lt;font style=&quot;font-size: 36px;&quot;&gt;JKM Snake Game&lt;/font&gt;&lt;/b&gt;" style="text;html=1;align=center;verticalAlign=middle;resizable=0;points=[];autosize=1;strokeColor=none;fillColor=none;fontSize=36;" vertex="1" parent="1">
          <mxGeometry x="279" y="50" width="330" height="60" as="geometry" />
        </mxCell>
      </root>
    </mxGraphModel>
  </diagram>
</mxfile>
